<?xml version="1.0" encoding="utf-8"?>
<!-- Generator: Adobe Illustrator 17.0.0, SVG Export Plug-In . SVG Version: 6.00 Build 0)  -->
<!DOCTYPE svg PUBLIC "-//W3C//DTD SVG 1.1//EN" "http://www.w3.org/Graphics/SVG/1.1/DTD/svg11.dtd">
<svg version="1.1" id="Layer_1" xmlns="http://www.w3.org/2000/svg" xmlns:xlink="http://www.w3.org/1999/xlink" x="0px" y="0px"
	 width="300px" height="51.75px" viewBox="0 0 300 51.75" style="enable-background:new 0 0 300 51.75;" xml:space="preserve">
<g id="XMLID_14_">
	<g id="XMLID_648_">
		<g id="XMLID_994_">
			<path id="XMLID_1293_" style="fill:#FFFFFF;" d="M299.219,47.88c-1.41,0.421-2.426-0.2-2.576-1.654
				c-0.037-0.362-0.056-0.743-0.057-1.107c-0.012-3.218,0.138-6.44,0-9.653c-0.164-3.816-2.306-6.13-4.928-7.106
				c-0.988-0.368-2.043-0.543-3.087-0.539l0.002-0.003l-1.683,0c-1.479,0.01-3.309,0.417-4.322,1.813
				c-0.999-1.376-2.791-1.801-4.258-1.822l-1.809,0.003l0,0c-0.144-0.003-0.234-0.003-0.234-0.003h-8.13c0,0-0.003,15.041,0,15.041
				v7.922c3.61,0,4.459-2.974,4.459-5.145c0,0-0.003-8.775,0-9.256c0.005-0.892,0.094-1.806,0.307-2.669
				c0.399-1.617,1.549-2.549,3.127-2.707c1.423-0.143,2.745,0.546,3.415,1.821c0.543,1.032,0.66,2.16,0.659,3.308
				c-0.003,4.977,0,8.918,0,13.896c0,0.25,0,0.501,0,0.753c0.002,0-0.002,0-0.002,0l0.002,0c3.646,0,4.509-3.003,4.509-5.195
				c0,0,0-0.208,0-0.558h-0.002c0-4.689-0.021-3.905,0.002-8.764c0.004-0.808,0.108-1.629,0.274-2.42
				c0.323-1.534,1.457-2.587,2.903-2.813c1.514-0.237,2.891,0.4,3.647,1.732c0.625,1.101,0.717,2.324,0.717,3.554
				c0,3.733-0.066,6.028,0,9.759c0.017,0.98,0.196,2.027,0.586,2.917c0.763,1.741,3.341,2.284,5.066,1.257
				c0.914-0.544,1.535-1.307,1.717-2.45C299.375,47.833,299.297,47.856,299.219,47.88z"/>
			<path id="XMLID_1239_" style="fill:#FFFFFF;" d="M81.296,44.55c-1.303,0-1.903-0.836-1.903-1.947
				c0-0.991-0.002-14.975-0.002-14.975c0-3.949-1.544-9.358-8.11-9.358l-10.877,0.003c-5.188,0-13.457,2.123-13.457,16.215
				c0,11.976,8.976,16.323,15.872,16.323c2.969,0,5.594,0.071,9.231-2.463c1.48,2.437,4.596,2.407,4.596,2.407
				c6.257,0,7.061-5.754,6.549-7.635C82.919,44.164,82.124,44.55,81.296,44.55z M63.775,46.654c-9.202,0-8.721-8.214-8.721-12.168
				c0-8.872,4.553-12.17,8.321-12.17h2.45c4.347,0,5.456,3.748,5.456,6.765c0,1.649,0.002,8.152,0.003,12.4l0,0
				C71.284,45.546,67.087,46.654,63.775,46.654z"/>
			<path id="XMLID_1238_" style="fill:#FFFFFF;" d="M129.077,44.55c-1.303,0-1.903-0.836-1.903-1.947
				c0-0.991-0.002-14.975-0.002-14.975c0-3.949-1.544-9.358-8.11-9.358v10.812c0,2.505,0.004,16.201,0.004,16.201
				c0,5.527,5.36,5.471,5.36,5.471c6.257,0,7.061-5.754,6.549-7.635C130.699,44.164,129.904,44.55,129.077,44.55z"/>
			<path id="XMLID_1231_" style="fill:#FFFFFF;" d="M42.528,44.55c-1.303,0-1.903-0.836-1.903-1.947
				c0-0.991-0.002-14.975-0.002-14.975c0-3.949-1.544-9.358-8.11-9.358H10.723v23.077v9.358c6.535,0,8.11-4.578,8.11-8.122
				l0.001-20.265h8.11c4.347,0,5.568,3.435,5.568,6.765c0,2.505,0.004,16.201,0.004,16.201c0,5.527,5.36,5.471,5.36,5.471
				c6.257,0,7.061-5.754,6.549-7.635C44.15,44.164,43.356,44.55,42.528,44.55z"/>
			<path id="XMLID_1225_" style="fill:#FFFFFF;" d="M203.023,43.118c-0.275,1.045-1.07,1.431-1.898,1.431
				c-1.303,0-1.903-0.836-1.903-1.947c0-0.624-0.001-10.125-0.002-17.067c0,0,0-5.654,0-7.216c-4.64,0-8.11,3.026-8.11,8.122
				l0.002,13.483c0,4.561-3.549,6.73-7.509,6.73c-5.246,0-8.698-2.536-8.698-6.737c0,0-0.001-7.44-0.002-14.382c0,0,0-5.654,0-7.216
				c-4.64,0-8.11,3.026-8.11,8.122c0,0,0.003,6.615,0.003,10.859c0,5.449,1.719,13.509,16.21,13.509c0,0,5.475,0.164,9.262-1.915
				c1.575,1.885,4.205,1.86,4.205,1.86C202.732,50.754,203.535,45,203.023,43.118z"/>
			<path id="XMLID_1048_" style="fill:#FFFFFF;" d="M106.247,24.566c0,0-2.278,5.913-4.103,10.47
				c-1.825,4.557-1.665,9.049,0.174,11.342c-1.386-0.529-2.512-2.659-3.006-3.807l-0.004,0.013
				c-0.784-1.934-7.089-18.025-7.089-18.025c-1.547-3.935-4.022-7.029-9.296-6.286c3.163,8.149,7.242,19.319,11.046,29.271
				c0.358,0.936,2.123,3.161,5.334,3.161l-0.139,0.008c3.211,0,4.976-2.225,5.334-3.161c3.804-9.952,7.883-21.122,11.046-29.271
				C110.269,17.537,107.794,20.631,106.247,24.566z"/>
			<path id="XMLID_1042_" style="fill:#FFFFFF;" d="M149.971,22.316h4.369c3.736,0,8.299-1.201,8.299-4.047l-15.64,0.003
				c-5.188,0-13.457,2.123-13.457,16.215c0,11.976,9.034,16.323,15.872,16.323c5.679,0,11.797-1.675,13.167-7.648
				c0,0-2.046,0-3.175,0c-1.319,3.269-5.406,3.488-9.463,3.488c-8.729,0-8.294-8.271-8.294-12.162
				C141.649,25.614,146.202,22.316,149.971,22.316z"/>
			<path id="XMLID_1036_" style="fill:#FFFFFF;" d="M228.206,30.786h3.093c2.645,0,5.876-0.85,5.876-2.865l-11.073,0.002
				c-3.673,0-9.528,1.503-9.528,11.48c0,8.479,6.396,11.557,11.238,11.557c4.021,0,8.352-1.186,9.322-5.415c0,0-1.449,0-2.248,0
				c-0.934,2.314-3.828,2.469-6.7,2.469c-6.18,0-5.872-5.856-5.872-8.611C222.314,33.121,225.538,30.786,228.206,30.786z"/>
			<g id="XMLID_1002_">
				<path id="XMLID_1004_" style="fill:#FFFFFF;" d="M207.308,47.754c0-0.349,0.065-0.681,0.193-0.995
					c0.129-0.314,0.31-0.585,0.541-0.81c0.229-0.225,0.502-0.405,0.818-0.539c0.314-0.136,0.652-0.203,1.011-0.203
					c0.349,0,0.679,0.067,0.995,0.203c0.314,0.134,0.585,0.314,0.81,0.539c0.224,0.225,0.405,0.495,0.539,0.81
					c0.135,0.314,0.202,0.646,0.202,0.995c0,0.36-0.067,0.694-0.202,1.003c-0.134,0.309-0.316,0.576-0.539,0.801
					c-0.225,0.225-0.495,0.402-0.81,0.531c-0.316,0.129-0.646,0.193-0.995,0.193c-0.36,0-0.697-0.065-1.011-0.193
					c-0.316-0.129-0.589-0.306-0.818-0.531c-0.231-0.225-0.412-0.493-0.541-0.801C207.372,48.448,207.308,48.114,207.308,47.754z"/>
			</g>
			<path id="XMLID_998_" style="fill:#FFFFFF;" d="M252.815,30.788c0.341-0.024,2,0.082,3.16,0.868
				c1.37,0.927,1.767,1.968,2.224,3.253c0.624,1.755,0.365,9.215,0.365,9.215s4.989,0.363,5.392-5.569
				c0.404-5.936-4.232-10.945-11.575-10.719c-7.556,0.233-11.202,5.958-11.046,11.337c0.16,5.492,2.548,10.961,10.933,11.563
				c0,0,7.389,0.612,10.723-5.713c0,0-1.886,2.128-7.924,2.658c-6.182,0.543-7.879-1.91-7.997-7.83
				C246.957,34.155,247.951,31.126,252.815,30.788z"/>
		</g>
	</g>
	<path id="XMLID_618_" style="fill-rule:evenodd;clip-rule:evenodd;fill:#B41E21;" d="M29.677,10.208
		C25.505,3.783,12.592-1.977,5.355,2.22c-7.237,4.197-3.856,21.83,1.666,26.368C12.544,33.126,31.392,17.291,29.677,10.208z"/>
	<path id="XMLID_616_" style="fill-rule:evenodd;clip-rule:evenodd;fill:#9B151C;" d="M9.999,18.605
		c-1.628-7.977,7.615-8.34,5.464-12.649c-2.151-4.31-12.495,6.37-8.15,13.911S12.512,25.884,9.999,18.605z"/>
	<path id="XMLID_568_" style="fill-rule:evenodd;clip-rule:evenodd;fill:#DACDCD;" d="M6.605,32.417l27.915-15.304
		c1.204-0.66,1.65-2.186,0.989-3.39l-2.432-4.437c-0.66-1.204-2.186-1.65-3.39-0.989L1.772,23.6c-1.204,0.66-1.65,2.186-0.989,3.39
		l2.432,4.437C3.875,32.632,5.401,33.077,6.605,32.417z"/>
	<path id="XMLID_423_" style="fill-rule:evenodd;clip-rule:evenodd;fill:#B41E21;" d="M3.731,3.57
		c-6.464,6.451-1.465,28.127,10.469,34.802c2.855,1.597,2.129-1.265-0.62-5.208C6.69,23.285,6.925,11.39,12.417,4.795
		C16.592-0.219,5.225,2.078,3.731,3.57z"/>
	<path id="XMLID_422_" style="fill-rule:evenodd;clip-rule:evenodd;fill:#9B151C;" d="M10.091,35.256
		c1.257,1.23,2.629,2.289,4.108,3.116c2.709,1.515,2.194-0.986-0.216-4.615c-0.068,0.088-0.135,0.182-0.201,0.282
		c-0.388-0.183-0.755-0.227-1.075-0.102c-0.245,0.096-0.444,0.283-0.597,0.545c-0.076,0.015-0.148,0.034-0.217,0.06
		c-0.655-0.141-1.194-0.065-1.529,0.263C10.239,34.927,10.148,35.079,10.091,35.256z"/>
	<circle id="XMLID_421_" style="fill-rule:evenodd;clip-rule:evenodd;fill:#DACDCD;" cx="14.728" cy="39.955" r="5.038"/>
</g>
<g>
</g>
<g>
</g>
<g>
</g>
<g>
</g>
<g>
</g>
<g>
</g>
<g>
</g>
<g>
</g>
<g>
</g>
<g>
</g>
<g>
</g>
<g>
</g>
<g>
</g>
<g>
</g>
<g>
</g>
</svg>
