<?xml version="1.0" encoding="UTF-8" standalone="no"?>
<!-- Generator: Adobe Illustrator 17.0.0, SVG Export Plug-In . SVG Version: 6.00 Build 0)  -->

<svg
   xmlns:dc="http://purl.org/dc/elements/1.1/"
   xmlns:cc="http://creativecommons.org/ns#"
   xmlns:rdf="http://www.w3.org/1999/02/22-rdf-syntax-ns#"
   xmlns:svg="http://www.w3.org/2000/svg"
   xmlns="http://www.w3.org/2000/svg"
   xmlns:sodipodi="http://sodipodi.sourceforge.net/DTD/sodipodi-0.dtd"
   xmlns:inkscape="http://www.inkscape.org/namespaces/inkscape"
   version="1.1"
   x="0px"
   y="0px"
   width="10px"
   height="6px"
   viewBox="0 0 10 6"
   style="enable-background:new 0 0 10 6;"
   xml:space="preserve"
   id="svg2"
   inkscape:version="0.48.4 r9939"
   sodipodi:docname="search-arrow.svg"><metadata
     id="metadata45"><rdf:RDF><cc:Work
         rdf:about=""><dc:format>image/svg+xml</dc:format><dc:type
           rdf:resource="http://purl.org/dc/dcmitype/StillImage" /></cc:Work></rdf:RDF></metadata><defs
     id="defs43" /><sodipodi:namedview
     pagecolor="#ffffff"
     bordercolor="#666666"
     borderopacity="1"
     objecttolerance="10"
     gridtolerance="10"
     guidetolerance="10"
     inkscape:pageopacity="0"
     inkscape:pageshadow="2"
     inkscape:window-width="1366"
     inkscape:window-height="744"
     id="namedview41"
     showgrid="false"
     inkscape:zoom="35.805126"
     inkscape:cx="5.9041545"
     inkscape:cy="0.68902763"
     inkscape:window-x="0"
     inkscape:window-y="24"
     inkscape:window-maximized="1"
     inkscape:current-layer="svg2" /><g
     id="Búsqueda"><g
       id="g28"><polygon
         id="XMLID_1_"
         style="fill:#EDAA00;"
         points="9.417,2.996 2.867,0.331 3.754,2.996 2.864,5.659   " /><path
         style="fill:#391860;"
         d="M9.674,2.996c0-0.017-0.003-0.031-0.006-0.045c0-0.006-0.003-0.008-0.003-0.014    C9.663,2.926,9.66,2.917,9.657,2.906C9.655,2.9,9.655,2.897,9.652,2.892c-0.006-0.014-0.011-0.025-0.02-0.04c0,0,0,0-0.003-0.003    C9.621,2.838,9.612,2.826,9.604,2.818C9.601,2.815,9.598,2.812,9.595,2.809C9.587,2.801,9.578,2.795,9.57,2.79    C9.567,2.787,9.561,2.784,9.558,2.781C9.55,2.775,9.538,2.77,9.527,2.764C9.524,2.761,9.521,2.761,9.519,2.758l0,0l-6.55-2.663    C2.876,0.059,2.771,0.079,2.697,0.147C2.623,0.215,2.598,0.319,2.629,0.416l0.858,2.584L2.623,5.583    C2.592,5.679,2.618,5.784,2.691,5.852c0.048,0.045,0.11,0.071,0.176,0.071c0.031,0,0.065-0.006,0.096-0.02L9.519,3.24    c0,0,0,0,0.003,0S9.527,3.237,9.53,3.234c0.011-0.006,0.023-0.011,0.031-0.017C9.564,3.215,9.57,3.212,9.572,3.209    c0.008-0.006,0.017-0.014,0.025-0.02c0.003-0.003,0.006-0.006,0.008-0.008c0.011-0.011,0.02-0.023,0.028-0.034l0,0    c0.008-0.011,0.014-0.025,0.02-0.04C9.657,3.101,9.657,3.098,9.66,3.093c0.003-0.011,0.006-0.02,0.008-0.031    c0-0.006,0.003-0.008,0.003-0.014C9.672,3.028,9.674,3.011,9.674,2.996L9.674,2.996L9.674,2.996L9.674,2.996z M3.286,0.778    l4.819,1.96H3.938L3.286,0.778z M3.938,3.251h4.164l-4.819,1.96L3.938,3.251z"
         id="path31" /><path
         style="fill:#391860;"
         d="M1.72,2.991C1.717,2.849,1.598,2.736,1.456,2.741C1.315,2.744,1.204,2.863,1.207,3.005    C1.21,3.147,1.329,3.257,1.47,3.254C1.612,3.249,1.725,3.132,1.72,2.991z"
         id="path33" /><path
         style="fill:#391860;"
         d="M0.822,3.079C0.771,2.945,0.623,2.88,0.49,2.931C0.357,2.982,0.292,3.13,0.343,3.263    c0.04,0.102,0.136,0.164,0.241,0.164c0.031,0,0.062-0.006,0.091-0.017C0.808,3.359,0.873,3.212,0.822,3.079z"
         id="path35" /><path
         style="fill:#391860;"
         d="M2.561,3.178C2.609,3.13,2.635,3.064,2.635,2.996c0-0.068-0.028-0.133-0.074-0.181    C2.513,2.767,2.448,2.739,2.38,2.739c-0.068,0-0.133,0.028-0.181,0.076S2.122,2.928,2.122,2.996c0,0.068,0.028,0.133,0.076,0.181    S2.312,3.254,2.38,3.254C2.448,3.251,2.513,3.226,2.561,3.178z"
         id="path37" /></g></g><g
     id="Estilos" /><g
     id="Guides" /></svg>