<?xml version="1.0" encoding="utf-8"?>
<!-- Generator: Adobe Illustrator 17.0.0, SVG Export Plug-In . SVG Version: 6.00 Build 0)  -->
<!DOCTYPE svg PUBLIC "-//W3C//DTD SVG 1.1//EN" "http://www.w3.org/Graphics/SVG/1.1/DTD/svg11.dtd">
<svg version="1.1" id="Capa_1" xmlns="http://www.w3.org/2000/svg" xmlns:xlink="http://www.w3.org/1999/xlink" x="0px" y="0px"
	 width="41px" height="40px" viewBox="0 0 41 40" style="enable-background:new 0 0 41 40;" xml:space="preserve">
<g>
	<path style="fill:#FFFFFF;" d="M40.8,37.8c0,1.1-0.9,2-2,2H2.2c-1.1,0-2-0.9-2-2V2.2c0-1.1,0.9-2,2-2h36.7c1.1,0,2,0.9,2,2V37.8z"
		/>
	<path style="fill:#FFDCA3;" d="M23.3,19.9c0.2,0.2,0.5,0.2,0.7,0l2.9-2.9c0.2-0.2,0.2-0.5,0-0.7l-2.6-2.6c-0.2-0.2-0.5-0.2-0.7,0
		l-2.9,2.9c-0.2,0.2-0.2,0.5,0,0.7L23.3,19.9z"/>
	<path style="fill:#FCCB75;" d="M19,24.2c0.2,0.2,0.5,0.2,0.7,0l3-3c0.2-0.2,0.2-0.5,0-0.7L20,17.8c-0.2-0.2-0.5-0.2-0.7,0l-3,3
		c-0.2,0.2-0.2,0.5,0,0.7L19,24.2z"/>
	<path style="fill:#EDAA00;" d="M18.5,24.8l-2.7-2.7c-0.2-0.2-0.5-0.2-0.7,0l-0.2,0.2v3.4h3.4l0.2-0.2C18.7,25.3,18.7,25,18.5,24.8z
		"/>
	<path style="fill:#F6BA43;" d="M15.2,22.3c0.2-0.2,0.4-0.2,0.6,0l2.4,2.4c0.2,0.2,0.2,0.4,0,0.6L18,25.5h1.8l8.6-8.6
		c0.3-0.3,0.3-0.9,0-1.2l-3.6-3.6c-0.3-0.3-0.9-0.3-1.2,0L15,20.7v1.8L15.2,22.3z M20.9,16.6l2.7-2.7c0.2-0.2,0.4-0.2,0.6,0l2.4,2.4
		c0.2,0.2,0.2,0.4,0,0.6l-2.7,2.7c-0.2,0.2-0.4,0.2-0.6,0l-2.4-2.4C20.7,17,20.7,16.8,20.9,16.6z M16.7,20.8l2.7-2.7
		c0.2-0.2,0.4-0.2,0.6,0l2.4,2.4c0.2,0.2,0.2,0.4,0,0.6l-2.7,2.7c-0.2,0.2-0.4,0.2-0.6,0l-2.4-2.4C16.5,21.2,16.5,21,16.7,20.8z"/>
	<path style="fill:#FFB8B4;" d="M30.8,26.7h-4.1c-0.2,0-0.5,0.2-0.5,0.5v3.6c0,0.2,0.2,0.5,0.5,0.5h4.1c0.2,0,0.5-0.2,0.5-0.5v-3.6
		C31.3,26.9,31.1,26.7,30.8,26.7z"/>
	<path style="fill:#F26C70;" d="M24.9,26.7h-4.1c-0.2,0-0.5,0.2-0.5,0.5v3.6c0,0.2,0.2,0.5,0.5,0.5h4.1c0.2,0,0.5-0.2,0.5-0.5v-3.6
		C25.3,26.9,25.1,26.7,24.9,26.7z"/>
	<path style="fill:#AD2F3D;" d="M14.9,28.9c0,0.6-0.2,1.2-0.5,1.7v0.1c0,0.2,0.2,0.5,0.5,0.5h4.1c0.2,0,0.5-0.2,0.5-0.5v-3.6
		c0-0.2-0.2-0.5-0.5-0.5h-4.1V28.9z"/>
	<path style="fill:#E73E51;" d="M32,25.5H19.8H18h-3.1v1.3h3.9c0.2,0,0.4,0.2,0.4,0.4v3.4c0,0.2-0.2,0.4-0.4,0.4H15
		c-0.2,0-0.4-0.2-0.4-0.4v-0.1c-0.6,1-1.7,1.8-3,1.8H32c0.5,0,0.9-0.4,0.9-0.9v-5.1C32.8,25.9,32.5,25.5,32,25.5z M25.2,30.6
		c0,0.2-0.2,0.4-0.4,0.4h-3.8c-0.2,0-0.4-0.2-0.4-0.4v-3.4c0-0.2,0.2-0.4,0.4-0.4h3.8c0.2,0,0.4,0.2,0.4,0.4V30.6z M31.1,30.6
		c0,0.2-0.2,0.4-0.4,0.4h-3.8c-0.2,0-0.4-0.2-0.4-0.4v-3.4c0-0.2,0.2-0.4,0.4-0.4h3.8c0.2,0,0.4,0.2,0.4,0.4V30.6z"/>
	<path style="fill:#9364CC;" d="M9.8,14.2h3.6c0.2,0,0.5-0.2,0.5-0.5V9.7c0-0.2-0.2-0.5-0.5-0.5H9.8c-0.2,0-0.5,0.2-0.5,0.5v4.1
		C9.3,14,9.5,14.2,9.8,14.2z"/>
	<path style="fill:#62269E;" d="M9.8,20.1h3.6c0.2,0,0.5-0.2,0.5-0.5v-4.1c0-0.2-0.2-0.5-0.5-0.5H9.8c-0.2,0-0.5,0.2-0.5,0.5v4.1
		C9.3,19.9,9.5,20.1,9.8,20.1z"/>
	<path style="fill:#391860;" d="M9.8,26.1h3.6c0.2,0,0.5-0.2,0.5-0.5v-4.1c0-0.2-0.2-0.5-0.5-0.5H9.8c-0.2,0-0.5,0.2-0.5,0.5v4.1
		C9.3,25.9,9.5,26.1,9.8,26.1z"/>
	<path style="fill:#783CBD;" d="M14.1,7.7H9C8.5,7.7,8.2,8,8.2,8.5v10.6v0.1V29c0,1.9,1.5,3.4,3.4,3.4h0.1c1.9,0,3.4-1.5,3.4-3.4
		v-9.8v-0.1V8.5C15,8,14.6,7.7,14.1,7.7z M13.7,25.5c0,0.2-0.2,0.4-0.4,0.4H9.9c-0.2,0-0.4-0.2-0.4-0.4v-3.8c0-0.2,0.2-0.4,0.4-0.4
		h3.4c0.2,0,0.4,0.2,0.4,0.4V25.5z M13.7,19.6c0,0.2-0.2,0.4-0.4,0.4H9.9c-0.2,0-0.4-0.2-0.4-0.4v-3.8c0-0.2,0.2-0.4,0.4-0.4h3.4
		c0.2,0,0.4,0.2,0.4,0.4V19.6z M13.7,13.6c0,0.2-0.2,0.4-0.4,0.4H9.9c-0.2,0-0.4-0.2-0.4-0.4V9.8c0-0.2,0.2-0.4,0.4-0.4h3.4
		c0.2,0,0.4,0.2,0.4,0.4V13.6z"/>
	<circle style="fill:#9364CC;" cx="11.6" cy="29.5" r="0.9"/>
</g>
</svg>
