<?xml version="1.0" encoding="utf-8"?>
<!-- Generator: Adobe Illustrator 17.0.0, SVG Export Plug-In . SVG Version: 6.00 Build 0)  -->
<!DOCTYPE svg PUBLIC "-//W3C//DTD SVG 1.1//EN" "http://www.w3.org/Graphics/SVG/1.1/DTD/svg11.dtd">
<svg version="1.1" id="Capa_1" xmlns="http://www.w3.org/2000/svg" xmlns:xlink="http://www.w3.org/1999/xlink" x="0px" y="0px"
	 width="41px" height="40px" viewBox="0 0 41 40" style="enable-background:new 0 0 41 40;" xml:space="preserve">
<g>
	<path style="fill:#FFFFFF;" d="M40.8,37.8c0,1.1-0.9,2-2,2H2.2c-1.1,0-2-0.9-2-2V2.2c0-1.1,0.9-2,2-2h36.7c1.1,0,2,0.9,2,2V37.8z"
		/>
	<g>
		<path style="fill:#391860;" d="M21.9,30.9c-0.6,0-1.2,0-1.9,0c0,0,0,0,0,0l-0.3-1.5l-0.2-1h-0.6h-2.2l-0.2,1L16,30.9
			c-0.6,0-1.3,0-1.9,0C14,30.9,14,31,14,31c0,0.3,0,0.6,0,0.9c0,0.1,0.1,0.2,0.2,0.2c2.6,0,5.2,0,7.8,0c0.1,0,0.2-0.1,0.2-0.2
			c0-0.3,0-0.6,0-0.9C22.1,31,22,30.9,21.9,30.9z"/>
		<path style="fill:#783CBD;" d="M28.2,23.8h-17V13.7v-1.4l0,0h-0.9l0,0H7.4c-0.1,0-0.1,0-0.2,0c-0.2,0-0.4,0.1-0.5,0.3
			c0,0,0,0-0.1,0.1c0,0.1-0.1,0.1-0.1,0.2c-0.1,0.1-0.1,0.3-0.1,0.5V24v3.3c0,0.6,0.5,1.1,1.1,1.1h9.2h2.2h0.6h9.2
			c0.6,0,1.1-0.5,1.1-1.1v-2.6v-0.9H28.2z"/>
		<polygon style="fill:#62269E;" points="28.2,26.9 19.5,26.9 7.8,26.9 7.8,21.3 7.8,13.7 11.2,13.7 11.2,23.8 28.2,23.8 		"/>
		<rect x="28.7" y="10.9" style="fill:#9364CC;" width="4.6" height="8.8"/>
		<rect x="22.1" y="10.9" style="fill:#9364CC;" width="4.6" height="8.8"/>
		<rect x="15.6" y="10.9" style="fill:#9364CC;" width="4.6" height="8.8"/>
		<path style="fill:#783CBD;" d="M14.2,9.5v11.7h20.4V9.5H14.2z M20.2,19.8h-4.6v-8.8h4.6V19.8z M26.7,19.8h-4.6v-8.8h4.6V19.8z
			 M33.2,19.8h-4.6v-8.8h4.6V19.8z"/>
		<rect x="14.2" y="7.9" style="fill:#391860;" width="20.4" height="1.6"/>
		<path style="opacity:0.23;fill:#F2F2F2;enable-background:new    ;" d="M6.5,12.8c0-0.1,0.1-0.1,0.1-0.2
			C6.6,12.7,6.5,12.7,6.5,12.8z"/>
		<polygon style="fill:#F6BA43;" points="14.2,21.2 14.2,10.5 13.3,10.5 11.2,10.5 11.2,23.8 31.7,23.8 31.7,22.1 31.7,21.2 		"/>
	</g>
</g>
</svg>
