<?xml version="1.0" encoding="utf-8"?>
<!-- Generator: Adobe Illustrator 17.0.0, SVG Export Plug-In . SVG Version: 6.00 Build 0)  -->
<!DOCTYPE svg PUBLIC "-//W3C//DTD SVG 1.1//EN" "http://www.w3.org/Graphics/SVG/1.1/DTD/svg11.dtd">
<svg version="1.1" xmlns="http://www.w3.org/2000/svg" xmlns:xlink="http://www.w3.org/1999/xlink" x="0px" y="0px" width="66px"
	 height="59px" viewBox="0 0 66 59" style="enable-background:new 0 0 66 59;" xml:space="preserve">
<g id="Contenido">
	<g>
		<g>
			<path style="fill:#391462;" d="M63.9,54.4C55,39.1,46.1,23.7,37.3,8.4c-1-1.7-2-3.5-3-5.2c-0.3-0.5-0.8-0.7-1.2-0.7
				c-0.5,0-0.9,0.2-1.2,0.7C22.9,18.5,14,33.8,5.2,49.2c-1,1.7-2,3.5-3,5.2c-0.5,0.9,0.1,2.2,1.2,2.2c17.7,0,35.5,0,53.2,0
				c2,0,4,0,6.1,0C63.7,56.6,64.4,55.4,63.9,54.4z"/>
			<path style="fill:#783CBD;" d="M62.6,58.1H3.4c-1.1,0-2-0.6-2.6-1.5c-0.5-0.9-0.5-2.1,0-3L30.4,2.3c0.5-0.9,1.4-1.5,2.5-1.5
				l0.1,0l0.1,0c1,0,1.9,0.5,2.5,1.5l29.6,51.3c0.5,0.9,0.5,2,0,3C64.6,57.6,63.7,58.1,62.6,58.1z M3.5,55h58.9L33,4L3.5,55z"/>
		</g>
		<g>
			<path style="fill:#FFFFFF;" d="M21.9,45.9c-0.7-2.2,0.3-4.6,2.3-5.7l-0.4-1.5c-0.2-0.6,0.1-1.2,0.8-1.4c0.6-0.2,1.2,0.1,1.4,0.8
				l0.7,2.3l0,0.1l0,0c0.2,0.6-0.2,1.3-0.8,1.4c-1.4,0.4-2.2,1.9-1.8,3.3c0.4,1.4,1.9,2.2,3.3,1.8c0.9-0.3,1.6-1,1.8-1.9
				c0.2-0.6,0.8-1,1.4-0.9c0.6,0.2,1,0.8,0.8,1.4c-0.4,1.6-1.6,3-3.4,3.5C25.5,50,22.7,48.5,21.9,45.9z M24.2,36.1
				c-0.8,0.2-1.5-0.2-1.7-0.9l-0.1-0.5c-0.2-0.8,0.2-1.5,0.9-1.7c0.7-0.2,1.5,0.2,1.7,0.9l0.1,0.5C25.3,35.1,24.9,35.9,24.2,36.1z"
				/>
			<path style="fill:#FFFFFF;" d="M36.7,33.8l-0.5,1.5c-0.2,0.6-0.8,1-1.5,0.8c-0.6-0.2-1-0.8-0.8-1.5l0.8-2.4l0,0l0-0.1
				c0.2-0.6,0.9-0.9,1.5-0.8c1.4,0.5,3-0.3,3.4-1.7c0.5-1.4-0.3-2.9-1.8-3.4c-0.9-0.3-1.9-0.1-2.6,0.5c-0.5,0.4-1.2,0.4-1.7-0.1
				c-0.4-0.5-0.4-1.2,0.1-1.6c1.3-1.1,3.1-1.6,4.9-1c2.6,0.9,4.1,3.7,3.2,6.3C41.2,32.6,39,33.9,36.7,33.8z M35.3,39l-0.2,0.5
				c-0.2,0.8-1,1.1-1.8,0.9c-0.7-0.2-1.1-1-0.9-1.8l0.2-0.5c0.2-0.7,1.1-1.1,1.8-0.9C35.1,37.5,35.5,38.3,35.3,39z"/>
		</g>
	</g>
</g>
<g id="Estilos">
</g>
</svg>
